<?xml version="1.0" encoding="UTF-8" standalone="no"?>
<svg
   viewBox="0 0 480 480"
   version="1.1"
   id="svg242"
   sodipodi:docname="discard.svg"
   width="480"
   height="480"
   inkscape:version="1.2.2 (b0a8486541, 2022-12-01)"
   xmlns:inkscape="http://www.inkscape.org/namespaces/inkscape"
   xmlns:sodipodi="http://sodipodi.sourceforge.net/DTD/sodipodi-0.dtd"
   xmlns="http://www.w3.org/2000/svg"
   xmlns:svg="http://www.w3.org/2000/svg">
  <defs
     id="defs246" />
  <sodipodi:namedview
     id="namedview244"
     pagecolor="#ffffff"
     bordercolor="#000000"
     borderopacity="0.25"
     inkscape:showpageshadow="2"
     inkscape:pageopacity="0.0"
     inkscape:pagecheckerboard="0"
     inkscape:deskcolor="#d1d1d1"
     showgrid="false"
     inkscape:zoom="1.17"
     inkscape:cx="180.76923"
     inkscape:cy="257.26496"
     inkscape:window-width="1920"
     inkscape:window-height="1011"
     inkscape:window-x="0"
     inkscape:window-y="32"
     inkscape:window-maximized="1"
     inkscape:current-layer="svg242" />
  <path
     d="m 301.35912,240 92.02947,-92.02947 c 11.29331,-11.29332 11.29331,-29.60357 0,-40.90608 L 372.93554,86.611414 c -11.2933,-11.293314 -29.60356,-11.293314 -40.90607,0 L 240,178.64088 147.97053,86.611414 c -11.29332,-11.293314 -29.60357,-11.293314 -40.90608,0 L 86.611414,107.06445 c -11.293314,11.29331 -11.293314,29.60357 0,40.90608 L 178.64088,240 86.611414,332.02947 c -11.293314,11.29332 -11.293314,29.60357 0,40.90607 l 20.453036,20.45305 c 11.29331,11.29331 29.61276,11.29331 40.90608,0 L 240,301.35912 l 92.02947,92.02947 c 11.29332,11.29331 29.61277,11.29331 40.90607,0 l 20.45305,-20.45305 c 11.29331,-11.2933 11.29331,-29.60356 0,-40.90607 z"
     id="path240"
     style="stroke-width:0.919648" />
</svg>
