<?xml version="1.0" encoding="UTF-8"?>
<svg version="1.1" viewBox="0 0 512 512" xmlns="http://www.w3.org/2000/svg"><path d="m333.82 393.34c-22.455 22.092-44.218 44.95-67.113 66.555-13.353 9.3152-25.811-2.9047-34.352-12.429-18.669-18.891-37.799-37.355-56.178-56.515-10.962-13.949 3.7754-34.509 20.467-30.756h36.703c-2.7e-4 -27.183-5.4e-4 -54.366-8.1e-4 -81.549h-81.548c-0.49706 15.796 1.0669 31.793-0.92249 47.447-4.8337 16.43-27.82 17.127-36.364 3.5293-20.712-21.074-42.188-41.457-62.413-62.971-9.3153-13.353 2.9046-25.811 12.429-34.352 18.891-18.669 37.355-37.799 56.515-56.178 13.949-10.962 34.509 3.7754 30.757 20.467v36.757h81.548v-81.548c-15.815-0.49542-31.83 1.0645-47.502-0.92249-16.43-4.8337-17.127-27.82-3.5293-36.364 21.074-20.712 41.457-42.188 62.971-62.413 13.353-9.3152 25.811 2.9047 34.352 12.429 18.669 18.891 37.799 37.355 56.178 56.515 10.962 13.949-3.7754 34.509-20.467 30.757h-36.703v81.548h81.548c0.49706-15.796-1.0669-31.793 0.92248-47.447 4.8335-16.429 27.819-17.127 36.363-3.5293 20.712 21.074 42.188 41.457 62.413 62.971 9.3153 13.353-2.9046 25.811-12.429 34.352-18.891 18.669-37.355 37.799-56.515 56.178-13.949 10.962-34.509-3.7754-30.756-20.467v-36.757h-81.547v81.548c15.815 0.49542 31.83-1.0645 47.502 0.92249 13.426 3.9248 18.057 22.664 7.6712 32.222z" stroke-width=".80897"/></svg>
