<?xml version="1.0" encoding="UTF-8" standalone="no"?>
<svg
   viewBox="0 0 448 448"
   version="1.1"
   id="svg458"
   width="448"
   height="448"
   xmlns="http://www.w3.org/2000/svg"
   xmlns:svg="http://www.w3.org/2000/svg">
  <defs
     id="defs462" />
  <path
     d="M 0,148 V 24 C 0,10.7 10.7,0 24,0 h 124 c 6.6,0 12,5.4 12,12 v 40 c 0,6.6 -5.4,12 -12,12 H 64 v 84 c 0,6.6 -5.4,12 -12,12 H 12 C 5.4,160 0,154.6 0,148 Z M 288,12 v 40 c 0,6.6 5.4,12 12,12 h 84 v 84 c 0,6.6 5.4,12 12,12 h 40 c 6.6,0 12,-5.4 12,-12 V 24 C 448,10.7 437.3,0 424,0 H 300 c -6.6,0 -12,5.4 -12,12 z m 148,276 h -40 c -6.6,0 -12,5.4 -12,12 v 84 h -84 c -6.6,0 -12,5.4 -12,12 v 40 c 0,6.6 5.4,12 12,12 h 124 c 13.3,0 24,-10.7 24,-24 V 300 c 0,-6.6 -5.4,-12 -12,-12 z M 160,436 v -40 c 0,-6.6 -5.4,-12 -12,-12 H 64 v -84 c 0,-6.6 -5.4,-12 -12,-12 H 12 c -6.6,0 -12,5.4 -12,12 v 124 c 0,13.3 10.7,24 24,24 h 124 c 6.6,0 12,-5.4 12,-12 z"
     id="path456" />
</svg>
