<?xml version="1.0" encoding="UTF-8" standalone="no"?>
<svg
   viewBox="0 0 512 512"
   version="1.1"
   id="svg206"
   sodipodi:docname="help.svg"
   width="512"
   height="512"
   inkscape:version="1.2.2 (b0a8486541, 2022-12-01)"
   xmlns:inkscape="http://www.inkscape.org/namespaces/inkscape"
   xmlns:sodipodi="http://sodipodi.sourceforge.net/DTD/sodipodi-0.dtd"
   xmlns="http://www.w3.org/2000/svg"
   xmlns:svg="http://www.w3.org/2000/svg">
  <defs
     id="defs210" />
  <sodipodi:namedview
     id="namedview208"
     pagecolor="#ffffff"
     bordercolor="#000000"
     borderopacity="0.25"
     inkscape:showpageshadow="2"
     inkscape:pageopacity="0.0"
     inkscape:pagecheckerboard="0"
     inkscape:deskcolor="#d1d1d1"
     showgrid="false"
     inkscape:zoom="0.62"
     inkscape:cx="207.25806"
     inkscape:cy="127.41935"
     inkscape:window-width="1920"
     inkscape:window-height="1011"
     inkscape:window-x="0"
     inkscape:window-y="32"
     inkscape:window-maximized="1"
     inkscape:current-layer="svg206" />
  <path
     d="m 256.47089,0 c -79.819,0 -131.518,32.703 -172.107003,91.026 -7.363,10.58 -5.093,25.086 5.178,32.874 l 43.138003,32.709 c 10.373,7.865 25.132,6.026 33.253,-4.148 25.049,-31.381 43.63,-49.449 82.757,-49.449 30.764,0 68.816,19.799 68.816,49.631 0,22.552 -18.617,34.134 -48.993,51.164 -35.423,19.86 -82.299,44.576 -82.299,106.405 V 320 c 0,13.255 10.745,24 24,24 h 72.471 c 13.255,0 24,-10.745 24,-24 v -5.773 c 0,-42.86 125.268,-44.645 125.268,-160.627 C 431.95389,66.256 341.35189,0 256.47089,0 Z m -10.021,373.459 c -38.196,0 -69.271,31.075 -69.271,69.271 0,38.195 31.075,69.27 69.271,69.27 38.196,0 69.271,-31.075 69.271,-69.271 0,-38.196 -31.075,-69.27 -69.271,-69.27 z"
     id="path204" />
</svg>
