<?xml version="1.0" encoding="UTF-8"?>
<svg width="448" height="448" version="1.1" viewBox="0 0 448 448" xmlns="http://www.w3.org/2000/svg">
 <path d="m432 384h-23.41l-130.71-362.31a32 32 0 0 0-30.3-21.69h-47.16a32 32 0 0 0-30.3 21.69l-130.71 362.31h-23.41a16 16 0 0 0-16 16v32a16 16 0 0 0 16 16h128a16 16 0 0 0 16-16v-32a16 16 0 0 0-16-16h-19.58l23.3-64h152.56l23.3 64h-19.58a16 16 0 0 0-16 16v32a16 16 0 0 0 16 16h128a16 16 0 0 0 16-16v-32a16 16 0 0 0-16-16zm-255.15-144 47.15-129.49 47.15 129.49z"/>
</svg>
