<?xml version="1.0" encoding="UTF-8" standalone="no"?>
<svg
   viewBox="0 0 448 448"
   version="1.1"
   id="svg4"
   width="448"
   height="448"
   xmlns="http://www.w3.org/2000/svg"
   xmlns:svg="http://www.w3.org/2000/svg">
  <defs
     id="defs8" />
  <path
     d="M 416,176 H 272 V 32 C 272,14.33 257.67,0 240,0 H 208 C 190.33,0 176,14.33 176,32 V 176 H 32 C 14.33,176 0,190.33 0,208 v 32 c 0,17.67 14.33,32 32,32 h 144 v 144 c 0,17.67 14.33,32 32,32 h 32 c 17.67,0 32,-14.33 32,-32 V 272 h 144 c 17.67,0 32,-14.33 32,-32 v -32 c 0,-17.67 -14.33,-32 -32,-32 z"
     id="path2" />
</svg>
