<?xml version="1.0" encoding="UTF-8"?>
<svg width="44" height="44" version="1.1" viewBox="0 0 11.642 11.642" xmlns="http://www.w3.org/2000/svg"><g transform="translate(0 -284.56)"><g transform="matrix(1.0859 0 0 1.0859 -21.964 194.84)" stroke-width=".84292"><g transform="translate(-.44083 -.3918)" fill="#fff"><g transform="matrix(.29985 -.29985 .29985 .29985 13.467 100.78)"><path d="m42.137 2.0718c-2.554-0.00229-3.2705 2.0473-5.6055 1.7481l-0.22651 3.3897c1.3583 0.24363 2.4306 1.0261 5.5315 0.46568 3.9692-0.71733 4.8062-1.7456 4.854-3.1085 0.04783-1.3629-2.2244-2.3718-4.2797-2.4869-0.0934-0.00526-0.185-0.00782-0.27381-0.00795zm-8.698 1.2378c-1.3903-0.00863-2.307 0.49491-2.3384 1.7828-0.04783 1.9601 1.7694 2.3436 3.9453 2.0806 0.14827-0.01792 0.28878-0.02702 0.42437-0.02997l0.23517-3.5016c-0.83325-0.20749-1.6037-0.32767-2.2664-0.33177z" fill="#fff" stroke-width="1.1364" style="paint-order:markers stroke fill"/></g><g transform="matrix(.40425 -.40425 -.40425 -.40425 11.263 103.87)"><path d="m42.321 2.1255c-1.8944-0.0017-2.4259 1.5186-4.1578 1.2967l-0.16801 2.5143c1.0075 0.18071 1.8028 0.7611 4.103 0.34541 2.9441-0.53207 3.5649-1.2948 3.6004-2.3057 0.03548-1.0109-1.6499-1.7593-3.1744-1.8447-0.06928-0.0039-0.13722-0.0058-0.2031-0.0059zm-6.4517 0.91814c-1.0313-0.0064-1.7112 0.3671-1.7345 1.3224-0.03548 1.4539 1.3124 1.7383 2.9264 1.5432 0.10998-0.01329 0.2142-0.02004 0.31478-0.02223l0.17444-2.5973c-0.61806-0.15391-1.1895-0.24305-1.6811-0.24609z" fill="#fff" style="paint-order:markers stroke fill"/></g><g transform="matrix(.92093 0 0 .92093 12.834 78.963)"><g transform="matrix(.3256 -.3256 .3256 .3256 28.419 56.915)"><path d="m42.321 2.1255c-1.8944-0.0017-2.4259 1.5186-4.1578 1.2967l-0.16801 2.5143c1.0075 0.18071 1.8028 0.7611 4.103 0.34541 2.9441-0.53207 3.5649-1.2948 3.6004-2.3057 0.03548-1.0109-1.6499-1.7593-3.1744-1.8447-0.06928-0.0039-0.13722-0.0058-0.2031-0.0059zm-6.4517 0.91814c-1.0313-0.0064-1.7112 0.3671-1.7345 1.3224-0.03548 1.4539 1.3124 1.7383 2.9264 1.5432 0.10998-0.01329 0.2142-0.02004 0.31478-0.02223l0.17444-2.5973c-0.61806-0.15391-1.1895-0.24305-1.6811-0.24609z" style="paint-order:markers stroke fill"/></g><g transform="matrix(.3256 -.3256 -.3256 -.3256 -28.846 -3.8549)"><path d="m42.321 2.1255c-1.8944-0.0017-2.4259 1.5186-4.1578 1.2967l-0.16801 2.5143c1.0075 0.18071 1.8028 0.7611 4.103 0.34541 2.9441-0.53207 3.5649-1.2948 3.6004-2.3057 0.03548-1.0109-1.6499-1.7593-3.1744-1.8447-0.06928-0.0039-0.13722-0.0058-0.2031-0.0059zm-6.4517 0.91814c-1.0313-0.0064-1.7112 0.3671-1.7345 1.3224-0.03548 1.4539 1.3124 1.7383 2.9264 1.5432 0.10998-0.01329 0.2142-0.02004 0.31478-0.02223l0.17444-2.5973c-0.61806-0.15391-1.1895-0.24305-1.6811-0.24609z" style="paint-order:markers stroke fill"/></g></g></g></g></g></svg>
