<?xml version="1.0" encoding="UTF-8" standalone="no"?>
<svg
   fill="none"
   height="20"
   viewBox="0 0 20 20"
   width="20"
   version="1.1"
   id="svg10"
   xmlns="http://www.w3.org/2000/svg"
   xmlns:svg="http://www.w3.org/2000/svg">
  <defs
     id="defs14" />
  <g
     fill="#212121"
     id="g8"
     transform="translate(-2,-2)">
    <path
       d="M 3,18.25 C 3,18.6642 3.33579,19 3.75,19 4.16421,19 4.5,18.6642 4.5,18.25 V 5.75 C 4.5,5.33579 4.16421,5 3.75,5 3.33579,5 3,5.33579 3,5.75 Z"
       id="path2" />
    <path
       d="M 19.5,18.25 C 19.5,18.6642 19.8358,19 20.25,19 20.6642,19 21,18.6642 21,18.25 V 5.75 C 21,5.33579 20.6642,5 20.25,5 19.8358,5 19.5,5.33579 19.5,5.75 Z"
       id="path4" />
    <path
       d="m 14.1462,14.0535 c -0.2178,0.2937 -0.1936,0.7103 0.0726,0.9766 0.2929,0.2929 0.7678,0.2929 1.0607,0 l 2.3701,-2.3674 C 17.858,12.537 18,12.2869 18,11.9988 18,11.7107 17.8578,11.4606 17.6493,11.335 L 15.2795,8.96778 15.1954,8.89517 C 14.9018,8.67731 14.4851,8.70152 14.2188,8.96778 L 14.1462,9.0519 c -0.2178,0.29361 -0.1936,0.71028 0.0726,0.9765 l 1.2212,1.2214 h -3.7838 l -0.0254,0.0019 H 8.56 L 9.78115,10.0304 9.86094,9.93645 C 10.0498,9.67306 10.0474,9.31484 9.85377,9.05386 L 9.78115,8.96974 9.6872,8.88995 C 9.42381,8.70108 9.0656,8.70347 8.80461,8.89712 L 8.72049,8.96974 6.35073,11.337 6.27578,11.3897 C 6.10886,11.5257 6,11.7487 6,12.0008 c 0,0.288 0.14201,0.5381 0.35039,0.6638 l 2.3701,2.3674 0.08412,0.0727 c 0.29361,0.2178 0.71027,0.1936 0.97654,-0.0727 0.26625,-0.2662 0.29045,-0.6829 0.07262,-0.9765 L 9.78115,13.9714 8.56,12.7517 h 3.7837 l 0.0254,-0.0019 H 15.44 l -1.2212,1.2196 z"
       id="path6" />
  </g>
</svg>
