<?xml version="1.0" encoding="UTF-8" standalone="no"?>
<svg
   viewBox="0 0 512 512"
   version="1.1"
   id="svg161"
   sodipodi:docname="insertPage.svg"
   inkscape:version="1.2.2 (b0a8486541, 2022-12-01)"
   width="512"
   height="512"
   xmlns:inkscape="http://www.inkscape.org/namespaces/inkscape"
   xmlns:sodipodi="http://sodipodi.sourceforge.net/DTD/sodipodi-0.dtd"
   xmlns="http://www.w3.org/2000/svg"
   xmlns:svg="http://www.w3.org/2000/svg">
  <defs
     id="defs165" />
  <sodipodi:namedview
     id="namedview163"
     pagecolor="#ffffff"
     bordercolor="#000000"
     borderopacity="0.25"
     inkscape:showpageshadow="2"
     inkscape:pageopacity="0.0"
     inkscape:pagecheckerboard="0"
     inkscape:deskcolor="#d1d1d1"
     showgrid="false"
     inkscape:zoom="0.73539105"
     inkscape:cx="401.14712"
     inkscape:cy="319.55787"
     inkscape:window-width="960"
     inkscape:window-height="1011"
     inkscape:window-x="960"
     inkscape:window-y="32"
     inkscape:window-maximized="0"
     inkscape:current-layer="svg161" />
  <path
     d="M 433.9,97.9 350,14 C 341,5 328.8,-0.1 316.1,-0.1 H 112 C 85.5,0 64,21.5 64,48 v 416 c 0,26.5 21.5,48 48,48 h 288 c 26.5,0 48,-21.5 48,-48 V 131.9 c 0,-12.7 -5.1,-25 -14.1,-34 z M 396.1,128 H 320 V 51.9 Z M 112,464 V 48 h 160 v 104 c 0,13.3 10.7,24 24,24 h 104 v 288 z"
     id="path159" />
  <path
     d="m 280.18165,342.16056 h 72.53771 c 8.9014,0 16.11748,-7.21607 16.1211,-16.1211 v -16.1211 c 0,-8.9014 -7.21608,-16.11748 -16.1211,-16.1211 h -72.53771 l 1e-5,-72.53771 c 0,-8.9014 -7.21608,-16.11748 -16.12111,-16.1211 h -16.1211 c -8.9014,-1e-5 -16.11748,7.21607 -16.1211,16.1211 l -1e-5,72.53771 h -72.5377 c -8.9014,-10e-6 -16.11748,7.21606 -16.1211,16.1211 v 16.1211 c 0,8.9014 7.2197,16.1211 16.1211,16.1211 h 72.5377 l 1e-5,72.53771 c 0,8.9014 7.2197,16.1211 16.1211,16.1211 h 16.1211 c 8.9014,0 16.11748,-7.21608 16.12111,-16.1211 z"
     id="path10"
     style="stroke-width:0.51256" />
</svg>
