<?xml version="1.0" encoding="UTF-8"?>
<svg width="576" height="576" version="1.1" viewBox="0 0 576 576" xmlns="http://www.w3.org/2000/svg"><path d="m288 176a110.94 110.94 0 0 0-31.24 5 55.4 55.4 0 0 1 7.24 27 56 56 0 0 1-56 56 55.4 55.4 0 0 1-27-7.24 111.71 111.71 0 1 0 107-80.76zm284.52 97.4c-54.23-105.81-161.59-177.4-284.52-177.4s-230.32 71.64-284.52 177.41a32.35 32.35 0 0 0 0 29.19c54.23 105.81 161.59 177.4 284.52 177.4s230.32-71.64 284.52-177.41a32.35 32.35 0 0 0 0-29.19zm-284.52 158.6c-98.65 0-189.09-55-237.93-144 48.84-89 139.27-144 237.93-144s189.09 55 237.93 144c-48.83 89-139.27 144-237.93 144z"/></svg>
