<?xml version="1.0" encoding="UTF-8"?>
<svg width="532" height="548" version="1.1" viewBox="0 0 532 548" xmlns="http://www.w3.org/2000/svg">
 <!--!Font Awesome Free 7.3.0 by @fontawesome - https://fontawesome.com License - https://fontawesome.com/license/free Copyright 2026 Fonticons, Inc.-->
 <path d="m64 0c-35.3 0-64 28.7-64 64v384c0 35.3 28.7 64 64 64h80v-112c0-35.3 28.7-64 64-64h176v-165.5c0-17-6.7-33.3-18.7-45.3l-106.6-106.5c-12-12-28.2-18.7-45.2-18.7zm261.5 176h-93.5c-13.3 0-24-10.7-24-24v-93.5zm-117.5 204c-11 0-20 9-20 20v128c0 11 9 20 20 20s20-9 20-20v-28h12c33.1 0 60-26.9 60-60s-26.9-60-60-60zm32 80h-12v-40h12c11 0 20 9 20 20s-9 20-20 20zm96-80c-11 0-20 9-20 20v128c0 11 9 20 20 20h32c28.7 0 52-23.3 52-52v-64c0-28.7-23.3-52-52-52zm20 128v-88h12c6.6 0 12 5.4 12 12v64c0 6.6-5.4 12-12 12zm88-108v128c0 11 9 20 20 20s20-9 20-20v-44h28c11 0 20-9 20-20s-9-20-20-20h-28v-24h28c11 0 20-9 20-20s-9-20-20-20h-48c-11 0-20 9-20 20z"/>
</svg>
