<svg viewBox="0 0 512 512" xmlns="http://www.w3.org/2000/svg"><path d="m256.455 8c66.269.119 126.437 26.233 170.859 68.685l35.715-35.715c15.12-15.119 40.971-4.411 40.971 16.971v134.059c0 13.255-10.745 24-24 24h-134.059c-21.382 0-32.09-25.851-16.971-40.971l41.75-41.75c-30.864-28.899-70.801-44.907-113.23-45.273-92.398-.798-170.283 73.977-169.484 169.442.758 90.561 74.178 166.552 167.994 166.552 41.127 0 79.997-14.678 110.629-41.556 4.743-4.161 11.906-3.908 16.368.553l39.662 39.662c4.872 4.872 4.631 12.815-.482 17.433-43.975 39.721-102.251 63.908-166.177 63.908-136.966 0-247.999-111.033-248-247.998-.001-136.809 111.646-248.247 248.455-248.002z"/></svg>