<?xml version="1.0" encoding="UTF-8" standalone="no"?>
<svg
   viewBox="0 0 352 352"
   version="1.1"
   id="svg12"
   width="352"
   height="352"
   xmlns="http://www.w3.org/2000/svg"
   xmlns:svg="http://www.w3.org/2000/svg">
  <defs
     id="defs16" />
  <path
     d="M 242.72,176 342.79,75.93 c 12.28,-12.28 12.28,-32.19 0,-44.48 L 320.55,9.21 c -12.28,-12.28 -32.19,-12.28 -44.48,0 L 176,109.28 75.93,9.21 C 63.65,-3.07 43.74,-3.07 31.45,9.21 L 9.21,31.45 c -12.28,12.28 -12.28,32.19 0,44.48 L 109.28,176 9.21,276.07 c -12.28,12.28 -12.28,32.19 0,44.48 l 22.24,22.24 c 12.28,12.28 32.2,12.28 44.48,0 L 176,242.72 276.07,342.79 c 12.28,12.28 32.2,12.28 44.48,0 l 22.24,-22.24 c 12.28,-12.28 12.28,-32.19 0,-44.48 z"
     id="path10" />
</svg>
