<?xml version="1.0" encoding="UTF-8"?>
<svg width="512" height="512" version="1.1" viewBox="0 0 512 512" xmlns="http://www.w3.org/2000/svg"><path d="m267.31 315.31 92.686 92.686-32.922 31.029c-15.12 15.12-4.412 40.971 16.97 40.971h112c13.255 0 23.952-10.745 23.952-24v-112c0-21.382-25.803-32.09-40.922-16.971l-31.078 32.971-92.686-92.686c-6.248-6.248-16.379-6.248-22.627 0l-25.373 25.373c-6.249 6.248-6.249 16.378 0 22.627zm-22.628-118.63-92.686-92.686 32.922-31.029c15.12-15.12 4.412-40.971-16.97-40.971h-112c-13.255 0-23.952 10.745-23.952 24v112c0 21.382 25.803 32.09 40.922 16.971l31.078-32.971 92.686 92.686c6.248 6.248 16.379 6.248 22.627 0l25.373-25.373c6.249-6.248 6.249-16.378 0-22.627z"/></svg>
