<?xml version="1.0" encoding="UTF-8"?>
<svg width="37.8" height="37.8" version="1.1" viewBox="0 0 10.001 10.001" xmlns="http://www.w3.org/2000/svg"><g transform="translate(0 -284.56)"><g transform="matrix(1.0859 0 0 1.0859 -21.964 194.84)" stroke-width=".84292"><g transform="translate(-1.0899 -1.0988)"><g stroke-width=".84292"><path transform="rotate(-45)" d="m-44.126 78.205c1.4544 0 2.6252 1.1708 2.6252 2.6252s-1.1708 2.6252-2.6252 2.6252c-1.4544 0-2.6252-1.1708-2.6252-2.6252s1.1708-2.6252 2.6252-2.6252z" fill="#fff" stroke="#04c800" stroke-linecap="square" stroke-width=".84292" style="paint-order:fill markers stroke"/><path d="m25.416 89.818 1e-6 -2.9209 1.8372 1.4604z" fill="#04c800" style="paint-order:markers stroke fill"/></g><g transform="matrix(.47208 0 0 .47208 17.348 43.458)" stroke-width=".85435"><path transform="rotate(-45)" d="m-54.374 67.956c1.4544 0 2.6252 1.1708 2.6252 2.6252s-1.1708 2.6252-2.6252 2.6252c-1.4544 0-2.6252-1.1708-2.6252-2.6252s1.1708-2.6252 2.6252-2.6252z" fill="#fff" stroke="#808080" stroke-linecap="square" style="paint-order:fill markers stroke"/><g transform="matrix(.38297 0 0 .38297 6.4362 59.209)" fill="#808080"><path d="m10.248 72.987h2.17v6.247h-2.17z" style="paint-order:markers stroke fill"/><path d="m13.82 72.987h2.17v6.247h-2.17z" style="paint-order:markers stroke fill"/></g></g></g></g></g></svg>
