<?xml version="1.0" encoding="UTF-8" standalone="no"?>
<svg
   viewBox="0 0 512 512"
   version="1.1"
   id="svg4"
   sodipodi:docname="rotate.svg"
   inkscape:version="1.2.2 (b0a8486541, 2022-12-01)"
   xmlns:inkscape="http://www.inkscape.org/namespaces/inkscape"
   xmlns:sodipodi="http://sodipodi.sourceforge.net/DTD/sodipodi-0.dtd"
   xmlns="http://www.w3.org/2000/svg"
   xmlns:svg="http://www.w3.org/2000/svg">
  <defs
     id="defs8" />
  <sodipodi:namedview
     id="namedview6"
     pagecolor="#ffffff"
     bordercolor="#000000"
     borderopacity="0.25"
     inkscape:showpageshadow="2"
     inkscape:pageopacity="0.0"
     inkscape:pagecheckerboard="0"
     inkscape:deskcolor="#d1d1d1"
     showgrid="false"
     inkscape:zoom="1.25"
     inkscape:cx="259.6"
     inkscape:cy="256"
     inkscape:window-width="1920"
     inkscape:window-height="1011"
     inkscape:window-x="0"
     inkscape:window-y="32"
     inkscape:window-maximized="1"
     inkscape:current-layer="svg4" />
  <path
     d="m 346.22846,159.47946 c -24.58789,-23.02273 -56.49661,-35.64307 -90.34801,-35.61318 -60.92151,0.0534 -113.51545,41.82504 -128.03679,99.76883 -1.05707,4.21805 -4.81501,7.19656 -9.16363,7.19656 H 73.610634 c -5.897255,0 -10.377216,-5.35377 -9.286327,-11.14956 C 81.342029,129.31207 160.68518,60.945459 256,60.945459 c 52.26203,0 99.72242,20.556232 134.741,54.021461 l 28.09022,-28.090218 c 11.89124,-11.891249 32.22332,-3.469297 32.22332,13.347868 v 105.43878 c 0,10.42518 -8.45105,18.87624 -18.87624,18.87624 H 326.73952 c -16.81716,0 -25.23911,-20.33208 -13.34787,-32.22411 z M 79.821704,287.46041 H 185.26048 c 16.81717,0 25.23911,20.33208 13.34787,32.22411 l -32.83681,32.8368 c 24.58789,23.02352 56.49897,35.64386 90.35116,35.61319 60.89005,-0.055 113.50523,-41.7983 128.03364,-99.76804 1.05707,-4.21806 4.81501,-7.19657 9.16363,-7.19657 h 45.07018 c 5.89726,0 10.37722,5.35377 9.28633,11.14957 C 430.65797,382.68793 351.31482,451.05454 256,451.05454 c -52.26203,0 -99.72242,-20.55623 -134.741,-54.02146 L 93.168784,425.1233 C 81.277536,437.01455 60.945459,428.5926 60.945459,411.77544 V 306.33665 c 0,-10.42518 8.451052,-18.87624 18.876245,-18.87624 z"
     id="path2"
     style="stroke-width:0.78651" />
</svg>
