<?xml version="1.0" encoding="UTF-8"?>
<svg width="37.8" height="37.8" version="1.1" viewBox="0 0 10.001 10.001" xmlns="http://www.w3.org/2000/svg"><g transform="translate(0 -284.56)" stroke-linecap="square" stroke-width="1.1348"><path d="m2.894 287.46c1.1671-1.1671 3.0462-1.1671 4.2133 0s1.1671 3.0462 1e-7 4.2132c-1.1671 1.1671-3.0462 1.1671-4.2133 0-1.1671-1.1671-1.1671-3.0462 0-4.2132z" fill="#fff" stroke="#f00" style="paint-order:fill markers stroke"/><path d="m3.4193 287.98v0.80108c0.25991 0.25943 0.52011 0.51875 0.77997 0.77822-0.25995 0.25996-0.52002 0.52002-0.77997 0.77998v0.80343h0.80167l0.78057-0.78056c0.25986 0.26025 0.51957 0.52026 0.77939 0.78056h0.80109v-0.80343c-0.25943-0.25992-0.51875-0.52011-0.77822-0.77998l0.77822-0.77822v-0.80108h-0.80344l-0.77704 0.77705c-0.25947-0.25909-0.51928-0.51801-0.77881-0.77705z" color="#000000" fill="#f00" style="paint-order:markers stroke fill"/></g></svg>
